<svg width="35" height="35" viewBox="0 0 35 35" fill="none" xmlns="http://www.w3.org/2000/svg">
<path fill-rule="evenodd" clip-rule="evenodd" d="M17.5 35C27.165 35 35 27.165 35 17.5C35 7.83502 27.165 0 17.5 0C7.83502 0 0 7.83502 0 17.5C0 27.165 7.83502 35 17.5 35ZM16.7764 22.4722C16.6706 22.4007 16.5463 22.3625 16.4191 22.3625C16.3346 22.3625 16.251 22.3793 16.1729 22.412C16.0949 22.4446 16.024 22.4926 15.9643 22.553C15.9045 22.6135 15.8572 22.6852 15.8249 22.7642C15.7926 22.8432 15.776 22.9279 15.776 23.0133C15.776 23.142 15.8137 23.2679 15.8844 23.3749C15.9551 23.4819 16.0555 23.5653 16.173 23.6146C16.2905 23.6639 16.4198 23.6767 16.5446 23.6516C16.6693 23.6265 16.7839 23.5645 16.8739 23.4735C16.9638 23.3825 17.025 23.2665 17.0499 23.1403C17.0747 23.0141 17.0619 22.8832 17.0133 22.7643C16.9646 22.6454 16.8822 22.5437 16.7764 22.4722ZM26.0129 18.2795C26.1187 18.351 26.243 18.3892 26.3702 18.3892C26.7087 18.3892 27.0133 18.0809 27.0133 17.7384C27.0133 17.6097 26.9756 17.4839 26.9049 17.3768C26.8342 17.2698 26.7338 17.1864 26.6163 17.1371C26.4988 17.0879 26.3695 17.075 26.2447 17.1001C26.12 17.1252 26.0054 17.1872 25.9155 17.2782C25.8255 17.3692 25.7643 17.4852 25.7395 17.6114C25.7146 17.7377 25.7274 17.8685 25.7761 17.9874C25.8247 18.1064 25.9072 18.208 26.0129 18.2795ZM24.9824 16.334C25.3505 15.9615 25.8496 15.7521 26.3702 15.7517C27.4533 15.7517 28.3333 16.6423 28.3333 17.7726C28.333 18.2994 28.1261 18.8046 27.758 19.1771C27.3899 19.5496 26.8907 19.759 26.3702 19.7593C25.9302 19.7593 25.4902 19.6223 25.1517 19.3483L18.3823 23.0476C18.3484 24.1437 17.5022 25 16.4191 25C15.4714 25 14.6252 24.2464 14.4898 23.2874L8.32963 20.0676C7.31422 19.5538 6.60343 18.0809 6.67112 16.6766C6.70497 15.786 7.07729 15.0667 7.65269 14.7241C7.84086 14.6099 9.68195 13.6804 12.0186 12.5008C13.8849 11.5587 16.0673 10.4569 17.9761 9.48345L18.213 9.38069C18.3146 9.31219 18.9915 8.93541 19.8038 9.38069C20.7516 9.89449 22.9178 10.9221 24.8132 11.8126C25.1717 11.9801 25.5357 12.1532 25.8826 12.3181C26.3872 12.558 26.8553 12.7806 27.2164 12.943C27.2164 12.943 27.521 13.08 27.521 13.3883C27.521 13.628 27.3518 13.7651 27.1825 13.8336L16.7576 19.314C16.1822 19.588 16.0129 19.5195 15.6745 19.3825C15.5513 19.32 13.6385 18.3078 11.8079 17.3391C10.6278 16.7146 9.4819 16.1082 8.87161 15.786L8.83777 15.7517C8.60083 15.649 8.4316 15.6147 8.26236 15.7175C8.02543 15.8545 7.8562 16.2313 7.82235 16.7108C7.75465 17.6699 8.22852 18.6632 8.83777 19.0057L14.6591 22.0885C14.9975 21.4377 15.6745 20.9924 16.4191 20.9924C16.7383 20.9905 17.0532 21.0676 17.3363 21.2168C17.6195 21.366 17.8623 21.583 18.0438 21.8487L24.5086 18.3549C24.442 18.1563 24.4077 17.9481 24.4071 17.7384C24.4074 17.2116 24.6143 16.7065 24.9824 16.334Z" fill="#5C539B"/>
</svg>
