<svg width="35" height="35" viewBox="0 0 35 35" fill="none" xmlns="http://www.w3.org/2000/svg">
<path fill-rule="evenodd" clip-rule="evenodd" d="M0 17.5C0 7.83504 7.83504 0 17.5 0C27.165 0 35 7.83504 35 17.5C35 27.165 27.165 35 17.5 35C7.83504 35 0 27.165 0 17.5ZM17.5009 8.16667C14.9661 8.16667 14.6479 8.17775 13.6524 8.22303C12.6588 8.26853 11.9806 8.42589 11.3871 8.65667C10.7732 8.89503 10.2525 9.21397 9.73372 9.73292C9.21455 10.2517 8.89562 10.7724 8.65645 11.3861C8.42508 11.9798 8.26758 12.6582 8.22289 13.6514C8.17833 14.647 8.16667 14.9653 8.16667 17.5001C8.16667 20.0349 8.17797 20.3521 8.22303 21.3476C8.26875 22.3412 8.42603 23.0194 8.65667 23.6129C8.89525 24.2268 9.21411 24.7475 9.73314 25.2663C10.2517 25.7854 10.7724 26.1051 11.3859 26.3436C11.9798 26.5743 12.6582 26.7316 13.6516 26.7771C14.6472 26.8225 14.9651 26.8336 17.4997 26.8336C20.0347 26.8336 20.3518 26.8225 21.3474 26.7771C22.341 26.7316 23.02 26.5743 23.6139 26.3436C24.2276 26.1051 24.7475 25.7854 25.2661 25.2663C25.7852 24.7475 26.1042 24.2268 26.3433 23.6131C26.5728 23.0194 26.7303 22.341 26.777 21.3478C26.8217 20.3522 26.8333 20.0349 26.8333 17.5001C26.8333 14.9653 26.8217 14.6472 26.777 13.6516C26.7303 12.658 26.5728 11.9798 26.3433 11.3863C26.1042 10.7724 25.7852 10.2517 25.2661 9.73292C24.7469 9.21375 24.2277 8.89489 23.6133 8.65667C23.0183 8.42589 22.3397 8.26853 21.3461 8.22303C20.3505 8.17775 20.0336 8.16667 17.498 8.16667H17.5009Z" fill="#5C539B"/>
<path fill-rule="evenodd" clip-rule="evenodd" d="M16.6635 9.84852C16.912 9.84816 17.1893 9.84852 17.5008 9.84852C19.9928 9.84852 20.2882 9.85749 21.2723 9.90219C22.1823 9.94383 22.6762 10.0959 23.0052 10.2236C23.4407 10.3928 23.7513 10.595 24.0777 10.9216C24.4044 11.2483 24.6067 11.5594 24.7762 11.995C24.904 12.3236 25.0562 12.8175 25.0976 13.7275C25.1423 14.7114 25.1521 15.007 25.1521 17.4978C25.1521 19.9887 25.1423 20.2843 25.0976 21.2681C25.056 22.1781 24.904 22.6721 24.7762 23.0006C24.607 23.4363 24.4044 23.7464 24.0777 24.0729C23.7511 24.3996 23.441 24.6018 23.0052 24.7709C22.6766 24.8993 22.1823 25.0509 21.2723 25.0926C20.2884 25.1373 19.9928 25.1469 17.5008 25.1469C15.0086 25.1469 14.7132 25.1373 13.7293 25.0926C12.8193 25.0506 12.3254 24.8985 11.9963 24.7707C11.5606 24.6015 11.2495 24.3993 10.9228 24.0727C10.5962 23.746 10.394 23.4357 10.2244 22.9999C10.0967 22.6713 9.94445 22.1774 9.90303 21.2674C9.85826 20.2835 9.84937 19.988 9.84937 17.4955C9.84937 15.0031 9.85826 14.7091 9.90303 13.7252C9.94459 12.8152 10.0967 12.3213 10.2244 11.9923C10.3936 11.5567 10.5962 11.2456 10.9228 10.9189C11.2495 10.5923 11.5606 10.3901 11.9963 10.2205C12.3253 10.0921 12.8193 9.94047 13.7293 9.89869C14.5903 9.85983 14.924 9.84816 16.6635 9.84619V9.84852ZM22.4829 11.3982C21.8646 11.3982 21.3629 11.8994 21.3629 12.5179C21.3629 13.1362 21.8646 13.6379 22.4829 13.6379C23.1012 13.6379 23.6029 13.1362 23.6029 12.5179C23.6029 11.8995 23.1012 11.3982 22.4829 11.3982ZM17.5008 12.7069C14.8538 12.7069 12.7077 14.853 12.7077 17.5C12.7077 20.147 14.8538 22.2921 17.5008 22.2921C20.1478 22.2921 22.2931 20.147 22.2931 17.5C22.2931 14.853 20.1478 12.7069 17.5008 12.7069Z" fill="#5C539B"/>
<path fill-rule="evenodd" clip-rule="evenodd" d="M17.5008 14.3892C19.2189 14.3892 20.6119 15.782 20.6119 17.5003C20.6119 19.2184 19.2189 20.6114 17.5008 20.6114C15.7824 20.6114 14.3896 19.2184 14.3896 17.5003C14.3896 15.782 15.7824 14.3892 17.5008 14.3892Z" fill="#5C539B"/>
</svg>
