<svg width="35" height="35" viewBox="0 0 35 35" fill="none" xmlns="http://www.w3.org/2000/svg">
<path fill-rule="evenodd" clip-rule="evenodd" d="M0 17.5C0 7.83504 7.83504 0 17.5 0C27.165 0 35 7.83504 35 17.5C35 27.165 27.165 35 17.5 35C7.83504 35 0 27.165 0 17.5ZM16.9759 14.2242L17.0126 14.8298L16.4006 14.7556C14.1727 14.4714 12.2264 13.5074 10.5739 11.8886L9.76602 11.0853L9.55792 11.6785C9.11721 13.0007 9.39874 14.3973 10.3168 15.3364C10.8065 15.8554 10.6963 15.9296 9.8517 15.6206C9.55792 15.5218 9.30081 15.4477 9.27639 15.4847C9.19071 15.5712 9.48442 16.6958 9.71702 17.1407C10.0353 17.7586 10.684 18.3641 11.394 18.7225L11.9938 19.0068L11.2839 19.0191C10.5984 19.0191 10.5739 19.0315 10.6474 19.291C10.8921 20.0942 11.8592 20.9469 12.9364 21.3177L13.6954 21.5772L13.0343 21.9726C12.055 22.5411 10.9044 22.8624 9.75377 22.8872C9.20289 22.8995 8.75 22.9489 8.75 22.986C8.75 23.1096 10.2434 23.8016 11.1125 24.0735C13.7198 24.8768 16.8168 24.5308 19.1425 23.159C20.795 22.1827 22.4475 20.2425 23.2187 18.3641C23.6349 17.3631 24.0511 15.5342 24.0511 14.6568C24.0511 14.0883 24.0878 14.0141 24.7733 13.3344C25.1773 12.939 25.5567 12.5064 25.6302 12.3829C25.7526 12.1481 25.7404 12.1481 25.1161 12.3581C24.0756 12.7289 23.9287 12.6795 24.4428 12.1233C24.8223 11.7279 25.2752 11.0111 25.2752 10.8011C25.2752 10.764 25.0916 10.8258 24.8835 10.937C24.6632 11.0606 24.1736 11.2459 23.8063 11.3572L23.1453 11.5673L22.5455 11.1595C22.215 10.937 21.7498 10.6899 21.505 10.6157C20.8807 10.4427 19.9259 10.4674 19.3629 10.6652C17.8327 11.2212 16.8657 12.6548 16.9759 14.2242Z" fill="#5C539B"/>
</svg>
